<svg version="1.1" viewBox="0.0 0.0 256.0 256.0" fill="none" stroke="none" stroke-linecap="square" stroke-miterlimit="10" xmlns:xlink="http://www.w3.org/1999/xlink" xmlns="http://www.w3.org/2000/svg"><clipPath id="p.0"><path d="m0 0l256.0 0l0 256.0l-256.0 0l0 -256.0z" clip-rule="nonzero"/></clipPath><g clip-path="url(#p.0)"><path fill="#000000" fill-opacity="0.0" d="m0 0l256.0 0l0 256.0l-256.0 0z" fill-rule="evenodd"/><path fill="#3f72af" d="m0 42.66752l0 0c0 -23.56462 19.1029 -42.66752 42.66752 -42.66752l170.66495 0l0 0c11.316132 0 22.168793 4.495315 30.170502 12.497027c8.001709 8.001712 12.497025 18.854362 12.497025 30.17049l0 170.66495c0 23.564621 -19.102905 42.667526 -42.667526 42.667526l-170.66495 0c-23.56462 0 -42.66752 -19.102905 -42.66752 -42.667526z" fill-rule="evenodd"/><path fill="#000000" fill-opacity="0.0808" d="m194.88905 60.614174l115.14961 115.49607l-133.7008 133.29134l-115.1496 -115.49606z" fill-rule="evenodd"/><path fill="#bdc3c7" d="m32.339996 127.065704l0 0c0 -51.157013 43.34349 -92.62797 96.810394 -92.62797l0 0c25.675705 0 50.299805 9.758987 68.45528 27.130104c18.155472 17.371109 28.355103 40.931396 28.355103 65.49786l0 0c0 51.157013 -43.34349 92.627975 -96.81038 92.627975l0 0c-53.466904 0 -96.810394 -41.470963 -96.810394 -92.627975z" fill-rule="evenodd"/><path stroke="#13596d" stroke-width="3.0" stroke-linejoin="round" stroke-linecap="butt" d="m32.339996 127.065704l0 0c0 -51.157013 43.34349 -92.62797 96.810394 -92.62797l0 0c25.675705 0 50.299805 9.758987 68.45528 27.130104c18.155472 17.371109 28.355103 40.931396 28.355103 65.49786l0 0c0 51.157013 -43.34349 92.627975 -96.81038 92.627975l0 0c-53.466904 0 -96.810394 -41.470963 -96.810394 -92.627975z" fill-rule="evenodd"/><path fill="#a6abaf" d="m92.43341 123.14l0 0c0 -18.949287 16.438957 -34.310715 36.717422 -34.310715l0 0c20.278473 0 36.717438 15.361427 36.717438 34.310715l0 0c0 18.94928 -16.438965 34.310715 -36.717438 34.310715l0 0c-20.278465 0 -36.717422 -15.361435 -36.717422 -34.310715z" fill-rule="evenodd"/><path stroke="#13596d" stroke-width="3.0" stroke-linejoin="round" stroke-linecap="butt" d="m92.43341 123.14l0 0c0 -18.949287 16.438957 -34.310715 36.717422 -34.310715l0 0c20.278473 0 36.717438 15.361427 36.717438 34.310715l0 0c0 18.94928 -16.438965 34.310715 -36.717438 34.310715l0 0c-20.278465 0 -36.717422 -15.361435 -36.717422 -34.310715z" fill-rule="evenodd"/><path fill="#ff514b" d="m188.80672 199.51483c-29.27803 24.33519 -70.91161 28.202972 -105.17354 9.770676c-34.26193 -18.432297 -54.26921 -55.46176 -50.541805 -93.542725z" fill-rule="evenodd"/><path stroke="#13596d" stroke-width="3.0" stroke-linejoin="round" stroke-linecap="butt" d="m188.80672 199.51483c-29.27803 24.33519 -70.91161 28.202972 -105.17354 9.770676c-34.26193 -18.432297 -54.26921 -55.46176 -50.541805 -93.542725z" fill-rule="evenodd"/></g></svg>